M48
; DRILL file {KiCad 9.0.2} date 2025-06-25T23:30:48-0400
; FORMAT={-:-/ absolute / metric / decimal}
; #@! TF.CreationDate,2025-06-25T23:30:48-04:00
; #@! TF.GenerationSoftware,Kicad,Pcbnew,9.0.2
; #@! TF.FileFunction,Plated,1,2,PTH
FMAT,2
METRIC
; #@! TA.AperFunction,Plated,PTH,ViaDrill
T1C0.300
; #@! TA.AperFunction,Plated,PTH,ComponentDrill
T2C0.889
; #@! TA.AperFunction,Plated,PTH,ComponentDrill
T3C1.500
%
G90
G05
T1
X152.4Y-95.25
X154.781Y-90.487
T2
X146.685Y-73.819
X146.685Y-76.359
X146.685Y-78.899
X146.685Y-81.439
X146.685Y-83.979
X146.685Y-86.519
X146.685Y-89.059
X161.925Y-73.819
X161.925Y-76.359
X161.925Y-78.899
X161.925Y-81.439
X161.925Y-83.979
X161.925Y-86.519
X161.925Y-89.059
T3
X141.446Y-102.235
X141.446Y-121.285
X147.796Y-99.695
X147.796Y-118.745
X160.496Y-102.235
X160.496Y-121.285
X166.846Y-99.695
X166.846Y-118.745
M30
