%TF.GenerationSoftware,KiCad,Pcbnew,9.0.2*%
%TF.CreationDate,2025-06-25T23:30:19-04:00*%
%TF.ProjectId,_autosave-hack pad,5f617574-6f73-4617-9665-2d6861636b20,rev?*%
%TF.SameCoordinates,Original*%
%TF.FileFunction,Copper,L1,Top*%
%TF.FilePolarity,Positive*%
%FSLAX46Y46*%
G04 Gerber Fmt 4.6, Leading zero omitted, Abs format (unit mm)*
G04 Created by KiCad (PCBNEW 9.0.2) date 2025-06-25 23:30:19*
%MOMM*%
%LPD*%
G01*
G04 APERTURE LIST*
G04 Aperture macros list*
%AMRoundRect*
0 Rectangle with rounded corners*
0 $1 Rounding radius*
0 $2 $3 $4 $5 $6 $7 $8 $9 X,Y pos of 4 corners*
0 Add a 4 corners polygon primitive as box body*
4,1,4,$2,$3,$4,$5,$6,$7,$8,$9,$2,$3,0*
0 Add four circle primitives for the rounded corners*
1,1,$1+$1,$2,$3*
1,1,$1+$1,$4,$5*
1,1,$1+$1,$6,$7*
1,1,$1+$1,$8,$9*
0 Add four rect primitives between the rounded corners*
20,1,$1+$1,$2,$3,$4,$5,0*
20,1,$1+$1,$4,$5,$6,$7,0*
20,1,$1+$1,$6,$7,$8,$9,0*
20,1,$1+$1,$8,$9,$2,$3,0*%
G04 Aperture macros list end*
%ADD10C,0.300000*%
%TA.AperFunction,NonConductor*%
%ADD11C,0.300000*%
%TD*%
%TA.AperFunction,ComponentPad*%
%ADD12C,2.200000*%
%TD*%
%TA.AperFunction,SMDPad,CuDef*%
%ADD13R,1.500000X1.000000*%
%TD*%
%TA.AperFunction,SMDPad,CuDef*%
%ADD14RoundRect,0.152400X1.063600X0.609600X-1.063600X0.609600X-1.063600X-0.609600X1.063600X-0.609600X0*%
%TD*%
%TA.AperFunction,ComponentPad*%
%ADD15C,1.524000*%
%TD*%
%TA.AperFunction,SMDPad,CuDef*%
%ADD16RoundRect,0.152400X-1.063600X-0.609600X1.063600X-0.609600X1.063600X0.609600X-1.063600X0.609600X0*%
%TD*%
%TA.AperFunction,ViaPad*%
%ADD17C,0.600000*%
%TD*%
%TA.AperFunction,Conductor*%
%ADD18C,0.200000*%
%TD*%
G04 APERTURE END LIST*
D10*
D11*
X148801653Y-78300828D02*
X149801653Y-79800828D01*
X149801653Y-78300828D02*
X148801653Y-79800828D01*
X150373081Y-79800828D02*
X150373081Y-78300828D01*
X151015939Y-79372257D02*
X151730225Y-79372257D01*
X150873082Y-79800828D02*
X151373082Y-78300828D01*
X151373082Y-78300828D02*
X151873082Y-79800828D01*
X152658796Y-78300828D02*
X152944510Y-78300828D01*
X152944510Y-78300828D02*
X153087367Y-78372257D01*
X153087367Y-78372257D02*
X153230224Y-78515114D01*
X153230224Y-78515114D02*
X153301653Y-78800828D01*
X153301653Y-78800828D02*
X153301653Y-79300828D01*
X153301653Y-79300828D02*
X153230224Y-79586542D01*
X153230224Y-79586542D02*
X153087367Y-79729400D01*
X153087367Y-79729400D02*
X152944510Y-79800828D01*
X152944510Y-79800828D02*
X152658796Y-79800828D01*
X152658796Y-79800828D02*
X152515939Y-79729400D01*
X152515939Y-79729400D02*
X152373081Y-79586542D01*
X152373081Y-79586542D02*
X152301653Y-79300828D01*
X152301653Y-79300828D02*
X152301653Y-78800828D01*
X152301653Y-78800828D02*
X152373081Y-78515114D01*
X152373081Y-78515114D02*
X152515939Y-78372257D01*
X152515939Y-78372257D02*
X152658796Y-78300828D01*
X155087367Y-79800828D02*
X155087367Y-78300828D01*
X155087367Y-79015114D02*
X155944510Y-79015114D01*
X155944510Y-79800828D02*
X155944510Y-78300828D01*
X156658796Y-79015114D02*
X157158796Y-79015114D01*
X157373082Y-79800828D02*
X156658796Y-79800828D01*
X156658796Y-79800828D02*
X156658796Y-78300828D01*
X156658796Y-78300828D02*
X157373082Y-78300828D01*
X158873082Y-79800828D02*
X158373082Y-79086542D01*
X158015939Y-79800828D02*
X158015939Y-78300828D01*
X158015939Y-78300828D02*
X158587368Y-78300828D01*
X158587368Y-78300828D02*
X158730225Y-78372257D01*
X158730225Y-78372257D02*
X158801654Y-78443685D01*
X158801654Y-78443685D02*
X158873082Y-78586542D01*
X158873082Y-78586542D02*
X158873082Y-78800828D01*
X158873082Y-78800828D02*
X158801654Y-78943685D01*
X158801654Y-78943685D02*
X158730225Y-79015114D01*
X158730225Y-79015114D02*
X158587368Y-79086542D01*
X158587368Y-79086542D02*
X158015939Y-79086542D01*
X159515939Y-79015114D02*
X160015939Y-79015114D01*
X160230225Y-79800828D02*
X159515939Y-79800828D01*
X159515939Y-79800828D02*
X159515939Y-78300828D01*
X159515939Y-78300828D02*
X160230225Y-78300828D01*
D10*
D11*
X133174510Y-73400996D02*
X133174510Y-71900996D01*
X133174510Y-71900996D02*
X133674510Y-72972425D01*
X133674510Y-72972425D02*
X134174510Y-71900996D01*
X134174510Y-71900996D02*
X134174510Y-73400996D01*
X135531654Y-73400996D02*
X135531654Y-72615282D01*
X135531654Y-72615282D02*
X135460225Y-72472425D01*
X135460225Y-72472425D02*
X135317368Y-72400996D01*
X135317368Y-72400996D02*
X135031654Y-72400996D01*
X135031654Y-72400996D02*
X134888796Y-72472425D01*
X135531654Y-73329568D02*
X135388796Y-73400996D01*
X135388796Y-73400996D02*
X135031654Y-73400996D01*
X135031654Y-73400996D02*
X134888796Y-73329568D01*
X134888796Y-73329568D02*
X134817368Y-73186710D01*
X134817368Y-73186710D02*
X134817368Y-73043853D01*
X134817368Y-73043853D02*
X134888796Y-72900996D01*
X134888796Y-72900996D02*
X135031654Y-72829568D01*
X135031654Y-72829568D02*
X135388796Y-72829568D01*
X135388796Y-72829568D02*
X135531654Y-72758139D01*
X136245939Y-72400996D02*
X136245939Y-73900996D01*
X136245939Y-72472425D02*
X136388797Y-72400996D01*
X136388797Y-72400996D02*
X136674511Y-72400996D01*
X136674511Y-72400996D02*
X136817368Y-72472425D01*
X136817368Y-72472425D02*
X136888797Y-72543853D01*
X136888797Y-72543853D02*
X136960225Y-72686710D01*
X136960225Y-72686710D02*
X136960225Y-73115282D01*
X136960225Y-73115282D02*
X136888797Y-73258139D01*
X136888797Y-73258139D02*
X136817368Y-73329568D01*
X136817368Y-73329568D02*
X136674511Y-73400996D01*
X136674511Y-73400996D02*
X136388797Y-73400996D01*
X136388797Y-73400996D02*
X136245939Y-73329568D01*
X137817368Y-73400996D02*
X137674511Y-73329568D01*
X137674511Y-73329568D02*
X137603082Y-73186710D01*
X137603082Y-73186710D02*
X137603082Y-71900996D01*
X138960225Y-73329568D02*
X138817368Y-73400996D01*
X138817368Y-73400996D02*
X138531654Y-73400996D01*
X138531654Y-73400996D02*
X138388796Y-73329568D01*
X138388796Y-73329568D02*
X138317368Y-73186710D01*
X138317368Y-73186710D02*
X138317368Y-72615282D01*
X138317368Y-72615282D02*
X138388796Y-72472425D01*
X138388796Y-72472425D02*
X138531654Y-72400996D01*
X138531654Y-72400996D02*
X138817368Y-72400996D01*
X138817368Y-72400996D02*
X138960225Y-72472425D01*
X138960225Y-72472425D02*
X139031654Y-72615282D01*
X139031654Y-72615282D02*
X139031654Y-72758139D01*
X139031654Y-72758139D02*
X138317368Y-72900996D01*
X139745939Y-71900996D02*
X139603082Y-72186710D01*
X140317368Y-73329568D02*
X140460225Y-73400996D01*
X140460225Y-73400996D02*
X140745939Y-73400996D01*
X140745939Y-73400996D02*
X140888796Y-73329568D01*
X140888796Y-73329568D02*
X140960225Y-73186710D01*
X140960225Y-73186710D02*
X140960225Y-73115282D01*
X140960225Y-73115282D02*
X140888796Y-72972425D01*
X140888796Y-72972425D02*
X140745939Y-72900996D01*
X140745939Y-72900996D02*
X140531654Y-72900996D01*
X140531654Y-72900996D02*
X140388796Y-72829568D01*
X140388796Y-72829568D02*
X140317368Y-72686710D01*
X140317368Y-72686710D02*
X140317368Y-72615282D01*
X140317368Y-72615282D02*
X140388796Y-72472425D01*
X140388796Y-72472425D02*
X140531654Y-72400996D01*
X140531654Y-72400996D02*
X140745939Y-72400996D01*
X140745939Y-72400996D02*
X140888796Y-72472425D01*
X133674510Y-75030198D02*
X133888796Y-75101626D01*
X133888796Y-75101626D02*
X133960225Y-75173055D01*
X133960225Y-75173055D02*
X134031653Y-75315912D01*
X134031653Y-75315912D02*
X134031653Y-75530198D01*
X134031653Y-75530198D02*
X133960225Y-75673055D01*
X133960225Y-75673055D02*
X133888796Y-75744484D01*
X133888796Y-75744484D02*
X133745939Y-75815912D01*
X133745939Y-75815912D02*
X133174510Y-75815912D01*
X133174510Y-75815912D02*
X133174510Y-74315912D01*
X133174510Y-74315912D02*
X133674510Y-74315912D01*
X133674510Y-74315912D02*
X133817368Y-74387341D01*
X133817368Y-74387341D02*
X133888796Y-74458769D01*
X133888796Y-74458769D02*
X133960225Y-74601626D01*
X133960225Y-74601626D02*
X133960225Y-74744484D01*
X133960225Y-74744484D02*
X133888796Y-74887341D01*
X133888796Y-74887341D02*
X133817368Y-74958769D01*
X133817368Y-74958769D02*
X133674510Y-75030198D01*
X133674510Y-75030198D02*
X133174510Y-75030198D01*
X135245939Y-75744484D02*
X135103082Y-75815912D01*
X135103082Y-75815912D02*
X134817368Y-75815912D01*
X134817368Y-75815912D02*
X134674510Y-75744484D01*
X134674510Y-75744484D02*
X134603082Y-75601626D01*
X134603082Y-75601626D02*
X134603082Y-75030198D01*
X134603082Y-75030198D02*
X134674510Y-74887341D01*
X134674510Y-74887341D02*
X134817368Y-74815912D01*
X134817368Y-74815912D02*
X135103082Y-74815912D01*
X135103082Y-74815912D02*
X135245939Y-74887341D01*
X135245939Y-74887341D02*
X135317368Y-75030198D01*
X135317368Y-75030198D02*
X135317368Y-75173055D01*
X135317368Y-75173055D02*
X134603082Y-75315912D01*
X136531653Y-75744484D02*
X136388796Y-75815912D01*
X136388796Y-75815912D02*
X136103082Y-75815912D01*
X136103082Y-75815912D02*
X135960224Y-75744484D01*
X135960224Y-75744484D02*
X135888796Y-75601626D01*
X135888796Y-75601626D02*
X135888796Y-75030198D01*
X135888796Y-75030198D02*
X135960224Y-74887341D01*
X135960224Y-74887341D02*
X136103082Y-74815912D01*
X136103082Y-74815912D02*
X136388796Y-74815912D01*
X136388796Y-74815912D02*
X136531653Y-74887341D01*
X136531653Y-74887341D02*
X136603082Y-75030198D01*
X136603082Y-75030198D02*
X136603082Y-75173055D01*
X136603082Y-75173055D02*
X135888796Y-75315912D01*
X137245938Y-74815912D02*
X137245938Y-76315912D01*
X137245938Y-74887341D02*
X137388796Y-74815912D01*
X137388796Y-74815912D02*
X137674510Y-74815912D01*
X137674510Y-74815912D02*
X137817367Y-74887341D01*
X137817367Y-74887341D02*
X137888796Y-74958769D01*
X137888796Y-74958769D02*
X137960224Y-75101626D01*
X137960224Y-75101626D02*
X137960224Y-75530198D01*
X137960224Y-75530198D02*
X137888796Y-75673055D01*
X137888796Y-75673055D02*
X137817367Y-75744484D01*
X137817367Y-75744484D02*
X137674510Y-75815912D01*
X137674510Y-75815912D02*
X137388796Y-75815912D01*
X137388796Y-75815912D02*
X137245938Y-75744484D01*
X133674510Y-77445114D02*
X133888796Y-77516542D01*
X133888796Y-77516542D02*
X133960225Y-77587971D01*
X133960225Y-77587971D02*
X134031653Y-77730828D01*
X134031653Y-77730828D02*
X134031653Y-77945114D01*
X134031653Y-77945114D02*
X133960225Y-78087971D01*
X133960225Y-78087971D02*
X133888796Y-78159400D01*
X133888796Y-78159400D02*
X133745939Y-78230828D01*
X133745939Y-78230828D02*
X133174510Y-78230828D01*
X133174510Y-78230828D02*
X133174510Y-76730828D01*
X133174510Y-76730828D02*
X133674510Y-76730828D01*
X133674510Y-76730828D02*
X133817368Y-76802257D01*
X133817368Y-76802257D02*
X133888796Y-76873685D01*
X133888796Y-76873685D02*
X133960225Y-77016542D01*
X133960225Y-77016542D02*
X133960225Y-77159400D01*
X133960225Y-77159400D02*
X133888796Y-77302257D01*
X133888796Y-77302257D02*
X133817368Y-77373685D01*
X133817368Y-77373685D02*
X133674510Y-77445114D01*
X133674510Y-77445114D02*
X133174510Y-77445114D01*
X134888796Y-78230828D02*
X134745939Y-78159400D01*
X134745939Y-78159400D02*
X134674510Y-78087971D01*
X134674510Y-78087971D02*
X134603082Y-77945114D01*
X134603082Y-77945114D02*
X134603082Y-77516542D01*
X134603082Y-77516542D02*
X134674510Y-77373685D01*
X134674510Y-77373685D02*
X134745939Y-77302257D01*
X134745939Y-77302257D02*
X134888796Y-77230828D01*
X134888796Y-77230828D02*
X135103082Y-77230828D01*
X135103082Y-77230828D02*
X135245939Y-77302257D01*
X135245939Y-77302257D02*
X135317368Y-77373685D01*
X135317368Y-77373685D02*
X135388796Y-77516542D01*
X135388796Y-77516542D02*
X135388796Y-77945114D01*
X135388796Y-77945114D02*
X135317368Y-78087971D01*
X135317368Y-78087971D02*
X135245939Y-78159400D01*
X135245939Y-78159400D02*
X135103082Y-78230828D01*
X135103082Y-78230828D02*
X134888796Y-78230828D01*
X136245939Y-78230828D02*
X136103082Y-78159400D01*
X136103082Y-78159400D02*
X136031653Y-78087971D01*
X136031653Y-78087971D02*
X135960225Y-77945114D01*
X135960225Y-77945114D02*
X135960225Y-77516542D01*
X135960225Y-77516542D02*
X136031653Y-77373685D01*
X136031653Y-77373685D02*
X136103082Y-77302257D01*
X136103082Y-77302257D02*
X136245939Y-77230828D01*
X136245939Y-77230828D02*
X136460225Y-77230828D01*
X136460225Y-77230828D02*
X136603082Y-77302257D01*
X136603082Y-77302257D02*
X136674511Y-77373685D01*
X136674511Y-77373685D02*
X136745939Y-77516542D01*
X136745939Y-77516542D02*
X136745939Y-77945114D01*
X136745939Y-77945114D02*
X136674511Y-78087971D01*
X136674511Y-78087971D02*
X136603082Y-78159400D01*
X136603082Y-78159400D02*
X136460225Y-78230828D01*
X136460225Y-78230828D02*
X136245939Y-78230828D01*
X137388796Y-77230828D02*
X137388796Y-78730828D01*
X137388796Y-77302257D02*
X137531654Y-77230828D01*
X137531654Y-77230828D02*
X137817368Y-77230828D01*
X137817368Y-77230828D02*
X137960225Y-77302257D01*
X137960225Y-77302257D02*
X138031654Y-77373685D01*
X138031654Y-77373685D02*
X138103082Y-77516542D01*
X138103082Y-77516542D02*
X138103082Y-77945114D01*
X138103082Y-77945114D02*
X138031654Y-78087971D01*
X138031654Y-78087971D02*
X137960225Y-78159400D01*
X137960225Y-78159400D02*
X137817368Y-78230828D01*
X137817368Y-78230828D02*
X137531654Y-78230828D01*
X137531654Y-78230828D02*
X137388796Y-78159400D01*
D12*
%TO.P,SW3,1,1*%
%TO.N,GND*%
X147796250Y-118745000D03*
%TO.P,SW3,2,2*%
%TO.N,Net-(U1-GPIO4{slash}MISO)*%
X141446250Y-121285000D03*
%TD*%
%TO.P,SW1,1,1*%
%TO.N,GND*%
X147796250Y-99695000D03*
%TO.P,SW1,2,2*%
%TO.N,Net-(U1-GPIO1{slash}RX)*%
X141446250Y-102235000D03*
%TD*%
%TO.P,SW4,1,1*%
%TO.N,GND*%
X166846250Y-118745000D03*
%TO.P,SW4,2,2*%
%TO.N,Net-(U1-GPIO3{slash}MOSI)*%
X160496250Y-121285000D03*
%TD*%
D13*
%TO.P,D2,1,VSS*%
%TO.N,unconnected-(D2-VSS-Pad1)*%
X166550000Y-82525000D03*
%TO.P,D2,2,DIN*%
%TO.N,GND*%
X166550000Y-85725000D03*
%TO.P,D2,3,VDD*%
%TO.N,unconnected-(D2-VDD-Pad3)*%
X171450000Y-85725000D03*
%TO.P,D2,4,DOUT*%
%TO.N,+5V*%
X171450000Y-82525000D03*
%TD*%
D12*
%TO.P,SW2,1,1*%
%TO.N,GND*%
X166846250Y-99695000D03*
%TO.P,SW2,2,2*%
%TO.N,Net-(U1-GPIO2{slash}SCK)*%
X160496250Y-102235000D03*
%TD*%
D14*
%TO.P,U1,1,GPIO26/ADC0/A0*%
%TO.N,unconnected-(U1-GPIO26{slash}ADC0{slash}A0-Pad1)*%
X145850000Y-73818750D03*
D15*
X146685000Y-73818750D03*
D14*
%TO.P,U1,2,GPIO27/ADC1/A1*%
%TO.N,unconnected-(U1-GPIO27{slash}ADC1{slash}A1-Pad2)*%
X145850000Y-76358750D03*
D15*
X146685000Y-76358750D03*
D14*
%TO.P,U1,3,GPIO28/ADC2/A2*%
%TO.N,unconnected-(U1-GPIO28{slash}ADC2{slash}A2-Pad3)*%
X145850000Y-78898750D03*
D15*
X146685000Y-78898750D03*
D14*
%TO.P,U1,4,GPIO29/ADC3/A3*%
%TO.N,unconnected-(U1-GPIO29{slash}ADC3{slash}A3-Pad4)*%
X145850000Y-81438750D03*
D15*
X146685000Y-81438750D03*
D14*
%TO.P,U1,5,GPIO6/SDA*%
%TO.N,Net-(D1-VDD)*%
X145850000Y-83978750D03*
D15*
X146685000Y-83978750D03*
D14*
%TO.P,U1,6,GPIO7/SCL*%
%TO.N,unconnected-(U1-GPIO7{slash}SCL-Pad6)*%
X145850000Y-86518750D03*
D15*
X146685000Y-86518750D03*
D14*
%TO.P,U1,7,GPIO0/TX*%
%TO.N,unconnected-(U1-GPIO0{slash}TX-Pad7)*%
X145850000Y-89058750D03*
D15*
X146685000Y-89058750D03*
%TO.P,U1,8,GPIO1/RX*%
%TO.N,Net-(U1-GPIO1{slash}RX)*%
X161925000Y-89058750D03*
D16*
X162760000Y-89058750D03*
D15*
%TO.P,U1,9,GPIO2/SCK*%
%TO.N,Net-(U1-GPIO2{slash}SCK)*%
X161925000Y-86518750D03*
D16*
X162760000Y-86518750D03*
D15*
%TO.P,U1,10,GPIO4/MISO*%
%TO.N,Net-(U1-GPIO4{slash}MISO)*%
X161925000Y-83978750D03*
D16*
X162760000Y-83978750D03*
D15*
%TO.P,U1,11,GPIO3/MOSI*%
%TO.N,Net-(U1-GPIO3{slash}MOSI)*%
X161925000Y-81438750D03*
D16*
X162760000Y-81438750D03*
D15*
%TO.P,U1,12,3V3*%
%TO.N,unconnected-(U1-3V3-Pad12)*%
X161925000Y-78898750D03*
D16*
X162760000Y-78898750D03*
D15*
%TO.P,U1,13,GND*%
%TO.N,GND*%
X161925000Y-76358750D03*
D16*
X162760000Y-76358750D03*
D15*
%TO.P,U1,14,VBUS*%
%TO.N,+5V*%
X161925000Y-73818750D03*
D16*
X162760000Y-73818750D03*
%TD*%
D13*
%TO.P,D1,1,VSS*%
%TO.N,unconnected-(D1-VSS-Pad1)*%
X135662500Y-82525000D03*
%TO.P,D1,2,DIN*%
%TO.N,GND*%
X135662500Y-85725000D03*
%TO.P,D1,3,VDD*%
%TO.N,Net-(D1-VDD)*%
X140562500Y-85725000D03*
%TO.P,D1,4,DOUT*%
%TO.N,+5V*%
X140562500Y-82525000D03*
%TD*%
D17*
%TO.N,Net-(U1-GPIO1{slash}RX)*%
X154781250Y-90487500D03*
%TO.N,Net-(U1-GPIO4{slash}MISO)*%
X152400000Y-95250000D03*
%TD*%
D18*
%TO.N,GND*%
X135662500Y-85725000D02*
X135662500Y-87561250D01*
X162760000Y-76358750D02*
X161925000Y-76358750D01*
X147796250Y-99695000D02*
X166846250Y-99695000D01*
X164277000Y-83452000D02*
X164277000Y-77875750D01*
X166687500Y-85725000D02*
X166846250Y-85883750D01*
X147796250Y-118745000D02*
X147796250Y-99695000D01*
X166846250Y-85883750D02*
X166846250Y-99695000D01*
X135662500Y-87561250D02*
X147796250Y-99695000D01*
X164277000Y-77875750D02*
X162760000Y-76358750D01*
X166550000Y-85725000D02*
X166687500Y-85725000D01*
X166550000Y-85725000D02*
X164277000Y-83452000D01*
X166846250Y-99695000D02*
X166846250Y-118745000D01*
%TO.N,Net-(D1-VDD)*%
X140562500Y-85725000D02*
X142308750Y-83978750D01*
X142308750Y-83978750D02*
X146685000Y-83978750D01*
%TO.N,+5V*%
X162743750Y-73818750D02*
X161925000Y-73818750D01*
X161925000Y-73818750D02*
X159573250Y-71467000D01*
X159573250Y-71467000D02*
X145256250Y-71467000D01*
X171450000Y-82525000D02*
X162743750Y-73818750D01*
X140562500Y-76160750D02*
X140562500Y-82525000D01*
X145256250Y-71467000D02*
X140562500Y-76160750D01*
%TO.N,Net-(U1-GPIO1{slash}RX)*%
X154781250Y-90487500D02*
X156210000Y-89058750D01*
X156210000Y-89058750D02*
X161925000Y-89058750D01*
%TO.N,Net-(U1-GPIO4{slash}MISO)*%
X152400000Y-95250000D02*
X152400000Y-92018807D01*
X160440057Y-83978750D02*
X161925000Y-83978750D01*
X152400000Y-92018807D02*
X160440057Y-83978750D01*
%TD*%
M02*
