%TF.GenerationSoftware,KiCad,Pcbnew,9.0.2*%
%TF.CreationDate,2025-06-25T23:30:19-04:00*%
%TF.ProjectId,_autosave-hack pad,5f617574-6f73-4617-9665-2d6861636b20,rev?*%
%TF.SameCoordinates,Original*%
%TF.FileFunction,Copper,L2,Bot*%
%TF.FilePolarity,Positive*%
%FSLAX46Y46*%
G04 Gerber Fmt 4.6, Leading zero omitted, Abs format (unit mm)*
G04 Created by KiCad (PCBNEW 9.0.2) date 2025-06-25 23:30:19*
%MOMM*%
%LPD*%
G01*
G04 APERTURE LIST*
%TA.AperFunction,ComponentPad*%
%ADD10C,2.200000*%
%TD*%
%TA.AperFunction,ComponentPad*%
%ADD11C,1.524000*%
%TD*%
%TA.AperFunction,ViaPad*%
%ADD12C,0.600000*%
%TD*%
%TA.AperFunction,Conductor*%
%ADD13C,0.200000*%
%TD*%
G04 APERTURE END LIST*
D10*
%TO.P,SW3,1,1*%
%TO.N,GND*%
X147796250Y-118745000D03*
%TO.P,SW3,2,2*%
%TO.N,Net-(U1-GPIO4{slash}MISO)*%
X141446250Y-121285000D03*
%TD*%
%TO.P,SW1,1,1*%
%TO.N,GND*%
X147796250Y-99695000D03*
%TO.P,SW1,2,2*%
%TO.N,Net-(U1-GPIO1{slash}RX)*%
X141446250Y-102235000D03*
%TD*%
%TO.P,SW4,1,1*%
%TO.N,GND*%
X166846250Y-118745000D03*
%TO.P,SW4,2,2*%
%TO.N,Net-(U1-GPIO3{slash}MOSI)*%
X160496250Y-121285000D03*
%TD*%
%TO.P,SW2,1,1*%
%TO.N,GND*%
X166846250Y-99695000D03*
%TO.P,SW2,2,2*%
%TO.N,Net-(U1-GPIO2{slash}SCK)*%
X160496250Y-102235000D03*
%TD*%
D11*
%TO.P,U1,1,GPIO26/ADC0/A0*%
%TO.N,unconnected-(U1-GPIO26{slash}ADC0{slash}A0-Pad1)*%
X146685000Y-73818750D03*
%TO.P,U1,2,GPIO27/ADC1/A1*%
%TO.N,unconnected-(U1-GPIO27{slash}ADC1{slash}A1-Pad2)*%
X146685000Y-76358750D03*
%TO.P,U1,3,GPIO28/ADC2/A2*%
%TO.N,unconnected-(U1-GPIO28{slash}ADC2{slash}A2-Pad3)*%
X146685000Y-78898750D03*
%TO.P,U1,4,GPIO29/ADC3/A3*%
%TO.N,unconnected-(U1-GPIO29{slash}ADC3{slash}A3-Pad4)*%
X146685000Y-81438750D03*
%TO.P,U1,5,GPIO6/SDA*%
%TO.N,Net-(D1-VDD)*%
X146685000Y-83978750D03*
%TO.P,U1,6,GPIO7/SCL*%
%TO.N,unconnected-(U1-GPIO7{slash}SCL-Pad6)*%
X146685000Y-86518750D03*
%TO.P,U1,7,GPIO0/TX*%
%TO.N,unconnected-(U1-GPIO0{slash}TX-Pad7)*%
X146685000Y-89058750D03*
%TO.P,U1,8,GPIO1/RX*%
%TO.N,Net-(U1-GPIO1{slash}RX)*%
X161925000Y-89058750D03*
%TO.P,U1,9,GPIO2/SCK*%
%TO.N,Net-(U1-GPIO2{slash}SCK)*%
X161925000Y-86518750D03*
%TO.P,U1,10,GPIO4/MISO*%
%TO.N,Net-(U1-GPIO4{slash}MISO)*%
X161925000Y-83978750D03*
%TO.P,U1,11,GPIO3/MOSI*%
%TO.N,Net-(U1-GPIO3{slash}MOSI)*%
X161925000Y-81438750D03*
%TO.P,U1,12,3V3*%
%TO.N,unconnected-(U1-3V3-Pad12)*%
X161925000Y-78898750D03*
%TO.P,U1,13,GND*%
%TO.N,GND*%
X161925000Y-76358750D03*
%TO.P,U1,14,VBUS*%
%TO.N,+5V*%
X161925000Y-73818750D03*
%TD*%
D12*
%TO.N,Net-(U1-GPIO1{slash}RX)*%
X154781250Y-90487500D03*
%TO.N,Net-(U1-GPIO4{slash}MISO)*%
X152400000Y-95250000D03*
%TD*%
D13*
%TO.N,Net-(U1-GPIO1{slash}RX)*%
X141446250Y-102235000D02*
X143033750Y-102235000D01*
X143033750Y-102235000D02*
X154781250Y-90487500D01*
%TO.N,Net-(U1-GPIO2{slash}SCK)*%
X160496250Y-87947500D02*
X161925000Y-86518750D01*
X160496250Y-102235000D02*
X160496250Y-87947500D01*
%TO.N,Net-(U1-GPIO4{slash}MISO)*%
X141446250Y-121285000D02*
X152400000Y-110331250D01*
X152400000Y-110331250D02*
X152400000Y-95250000D01*
%TO.N,Net-(U1-GPIO3{slash}MOSI)*%
X157162500Y-117951250D02*
X157162500Y-86201250D01*
X157162500Y-86201250D02*
X161925000Y-81438750D01*
X160496250Y-121285000D02*
X157162500Y-117951250D01*
%TD*%
M02*
