%TF.GenerationSoftware,KiCad,Pcbnew,9.0.2*%
%TF.CreationDate,2025-06-25T23:30:19-04:00*%
%TF.ProjectId,_autosave-hack pad,5f617574-6f73-4617-9665-2d6861636b20,rev?*%
%TF.SameCoordinates,Original*%
%TF.FileFunction,Soldermask,Top*%
%TF.FilePolarity,Negative*%
%FSLAX46Y46*%
G04 Gerber Fmt 4.6, Leading zero omitted, Abs format (unit mm)*
G04 Created by KiCad (PCBNEW 9.0.2) date 2025-06-25 23:30:19*
%MOMM*%
%LPD*%
G01*
G04 APERTURE LIST*
G04 Aperture macros list*
%AMRoundRect*
0 Rectangle with rounded corners*
0 $1 Rounding radius*
0 $2 $3 $4 $5 $6 $7 $8 $9 X,Y pos of 4 corners*
0 Add a 4 corners polygon primitive as box body*
4,1,4,$2,$3,$4,$5,$6,$7,$8,$9,$2,$3,0*
0 Add four circle primitives for the rounded corners*
1,1,$1+$1,$2,$3*
1,1,$1+$1,$4,$5*
1,1,$1+$1,$6,$7*
1,1,$1+$1,$8,$9*
0 Add four rect primitives between the rounded corners*
20,1,$1+$1,$2,$3,$4,$5,0*
20,1,$1+$1,$4,$5,$6,$7,0*
20,1,$1+$1,$6,$7,$8,$9,0*
20,1,$1+$1,$8,$9,$2,$3,0*%
G04 Aperture macros list end*
%ADD10C,1.700000*%
%ADD11C,4.000000*%
%ADD12C,2.200000*%
%ADD13R,1.500000X1.000000*%
%ADD14RoundRect,0.152400X1.063600X0.609600X-1.063600X0.609600X-1.063600X-0.609600X1.063600X-0.609600X0*%
%ADD15C,1.524000*%
%ADD16RoundRect,0.152400X-1.063600X-0.609600X1.063600X-0.609600X1.063600X0.609600X-1.063600X0.609600X0*%
G04 APERTURE END LIST*
D10*
%TO.C,SW3*%
X140176250Y-123825000D03*
D11*
X145256250Y-123825000D03*
D10*
X150336250Y-123825000D03*
D12*
X147796250Y-118745000D03*
X141446250Y-121285000D03*
%TD*%
D10*
%TO.C,SW1*%
X140176250Y-104775000D03*
D11*
X145256250Y-104775000D03*
D10*
X150336250Y-104775000D03*
D12*
X147796250Y-99695000D03*
X141446250Y-102235000D03*
%TD*%
D10*
%TO.C,SW4*%
X159226250Y-123825000D03*
D11*
X164306250Y-123825000D03*
D10*
X169386250Y-123825000D03*
D12*
X166846250Y-118745000D03*
X160496250Y-121285000D03*
%TD*%
D13*
%TO.C,D2*%
X166550000Y-82525000D03*
X166550000Y-85725000D03*
X171450000Y-85725000D03*
X171450000Y-82525000D03*
%TD*%
D10*
%TO.C,SW2*%
X159226250Y-104775000D03*
D11*
X164306250Y-104775000D03*
D10*
X169386250Y-104775000D03*
D12*
X166846250Y-99695000D03*
X160496250Y-102235000D03*
%TD*%
D14*
%TO.C,U1*%
X145850000Y-73818750D03*
D15*
X146685000Y-73818750D03*
D14*
X145850000Y-76358750D03*
D15*
X146685000Y-76358750D03*
D14*
X145850000Y-78898750D03*
D15*
X146685000Y-78898750D03*
D14*
X145850000Y-81438750D03*
D15*
X146685000Y-81438750D03*
D14*
X145850000Y-83978750D03*
D15*
X146685000Y-83978750D03*
D14*
X145850000Y-86518750D03*
D15*
X146685000Y-86518750D03*
D14*
X145850000Y-89058750D03*
D15*
X146685000Y-89058750D03*
X161925000Y-89058750D03*
D16*
X162760000Y-89058750D03*
D15*
X161925000Y-86518750D03*
D16*
X162760000Y-86518750D03*
D15*
X161925000Y-83978750D03*
D16*
X162760000Y-83978750D03*
D15*
X161925000Y-81438750D03*
D16*
X162760000Y-81438750D03*
D15*
X161925000Y-78898750D03*
D16*
X162760000Y-78898750D03*
D15*
X161925000Y-76358750D03*
D16*
X162760000Y-76358750D03*
D15*
X161925000Y-73818750D03*
D16*
X162760000Y-73818750D03*
%TD*%
D13*
%TO.C,D1*%
X135662500Y-82525000D03*
X135662500Y-85725000D03*
X140562500Y-85725000D03*
X140562500Y-82525000D03*
%TD*%
M02*
